<?xml version="1.0" encoding="utf-8"?>
<!-- Generator: Adobe Illustrator 24.3.0, SVG Export Plug-In . SVG Version: 6.00 Build 0)  -->
<svg version="1.1" xmlns="http://www.w3.org/2000/svg" xmlns:xlink="http://www.w3.org/1999/xlink" x="0px" y="0px"
	 viewBox="0 0 29 35" style="enable-background:new 0 0 29 35;" xml:space="preserve">
<style type="text/css">
	.st0{fill:#0066FF;}
</style>
<g id="Layer_2">
</g>
<g id="Layer_1">
	<g>
		<polygon class="st0" points="5.53,15.91 4.82,15.21 4.11,14.5 4.82,13.79 5.53,13.09 7.89,10.72 0,10 0,19 7.89,18.28 		"/>
		<polygon class="st0" points="11.18,10.96 9.77,9.55 4.82,14.5 9.77,19.45 11.18,18.04 7.65,14.5 		"/>
		<polygon class="st0" points="21.35,14.5 17.82,18.04 19.23,19.45 24.18,14.5 19.23,9.55 17.82,10.96 		"/>
		<polygon class="st0" points="21.11,10.72 23.47,13.09 24.18,13.79 24.89,14.5 24.18,15.21 23.47,15.91 21.11,18.28 29,19 29,10 		
			"/>
		<rect x="9" y="13.5" transform="matrix(0.4228 -0.9062 0.9062 0.4228 -4.7712 21.5091)" class="st0" width="11" height="2"/>
		<polygon class="st0" points="11.18,10.26 11.89,10.96 11.18,11.67 8.35,14.5 11.18,17.33 11.42,17.56 15.25,9.33 15.68,8.43 
			16.58,8.85 17.49,9.27 18.13,9.57 19,0 10,0 10.91,9.98 		"/>
		<polygon class="st0" points="17.82,18.74 17.11,18.04 17.82,17.33 20.65,14.5 17.82,11.67 17.58,11.44 13.75,19.67 13.32,20.57 
			12.42,20.15 11.51,19.73 10.83,19.41 9,35 20,35 18.12,19.05 		"/>
	</g>
</g>
<g id="Layer_3">
	<g>
		<g>
			<path class="st0" d="M22.89,18.95c-0.87,1.63-2.2,2.98-3.82,3.88l0.25,2.11c2.53-1.17,4.57-3.23,5.7-5.79L22.89,18.95z"/>
			<path class="st0" d="M9.93,22.82c-1.62-0.89-2.95-2.24-3.82-3.88l-2.13,0.19c1.13,2.56,3.16,4.62,5.7,5.79L9.93,22.82z"/>
			<path class="st0" d="M6.11,10.05C7,8.38,8.38,7,10.05,6.11L9.86,3.98C7.24,5.14,5.14,7.24,3.98,9.86L6.11,10.05z"/>
			<path class="st0" d="M18.95,6.11C20.62,7,22,8.38,22.89,10.05l2.13-0.19c-1.16-2.62-3.26-4.72-5.88-5.88L18.95,6.11z"/>
		</g>
	</g>
</g>
</svg>
